<svg xmlns="http://www.w3.org/2000/svg" width="118" height="118" viewBox="0 0 118 118">
  <g id="Grupo_9328" data-name="Grupo 9328" transform="translate(-396 -4980)">
    <g id="Elipse_609" data-name="Elipse 609" transform="translate(396 4980)" fill="#afdddb" stroke="#619694" stroke-width="2">
      <circle cx="59" cy="59" r="59" stroke="none"/>
      <circle cx="59" cy="59" r="58" fill="none"/>
    </g>
    <path id="Trazado_18724" data-name="Trazado 18724" d="M160.914,510.338h59.2l-3.34-14.828h-5.428v.407a8.577,8.577,0,0,1-2.52,6.074l0,0,0,0-.005.005-.068.067-.005.005-.069.067,0,.005-.07.065-.005.005-.071.065,0,0-.017.016-.06.054-.072.063-.005,0-.074.063-.078.066-.005,0-.075.061-.005,0-.076.061,0,0-.078.059,0,0-.078.059,0,0-.078.057,0,0-.079.057,0,0-.08.056,0,0-.081.055,0,0-.081.055,0,0-.082.053,0,0-.084.053,0,0-.083.052,0,0-.085.05,0,0-.085.05,0,0-.086.049,0,0-.087.048,0,0-.087.047,0,0-.089.046,0,0-.089.046,0,0-.089.044,0,0-.09.043,0,0-.091.042,0,0-.092.04,0,0-.093.04h0l-.093.039,0,0-.094.037h0l-.094.037,0,0L205.7,504l0,0-.1.035h0l-.1.033h0l-.1.033h0l-.1.031h0l-.1.03h0l-.1.029h0l-.1.027h0l-.1.026h0l-.1.026h0l-.1.024h0l-.1.023h0l-.1.022h0l-.1.02h0l-.1.019h0l-.1.017h0l-.1.016h0l-.1.016h0l-.106.015h0l-.106.013h0l-.106.012h0l-.107.01h0l-.108.009h0l-.108.008h0l-.109.005h0l-.109.005h0l-.11,0-.11,0h-.111a8.594,8.594,0,0,1-3.427-.718l-.014-.006-.015-.006-.015-.006-.008,0-.005,0-.014-.006-.015-.006-.014-.005,0,0-.011,0-.014-.006-.014-.006-.027-.013h0l-.015-.006-.014-.006-.006,0-.007,0-.014-.006-.015-.006-.014-.006h0l-.013-.006-.014-.006-.014-.006-.01,0,0,0-.014-.007-.014-.006-.014-.006,0,0-.01,0-.014-.006-.013-.007-.013-.006h0l-.014-.007-.014-.006-.014-.007-.007,0-.006,0-.014-.006-.014-.007-.014-.007h0l-.012-.005-.014-.007-.014-.007-.01-.005,0,0-.014-.006-.013-.007-.015-.007,0,0-.008,0-.014-.007-.014-.007-.014-.007h0l-.014-.007-.013-.007-.014-.007-.008,0-.005,0-.014-.007-.013-.007-.014-.007,0,0-.011-.006-.013-.007-.014-.007-.011-.006h0l-.013-.008-.014-.007-.013-.007-.006,0-.007,0-.014-.007-.006,0a11.25,11.25,0,0,1-7.215,3.243h0l-.089.005-.253.011h-.017l-.07,0h-.02l-.09,0h-.362l-.091,0h-.019l-.071,0h-.016l-.253-.011-.09-.005h0a11.253,11.253,0,0,1-7.216-3.243l-.006,0-.014.007-.007,0-.005,0-.014.007-.014.007-.013.008h0l-.012.006-.013.007-.014.007-.011.006,0,0-.013.007-.014.007-.014.007-.005,0-.008,0-.013.007-.014.007-.014.007h0l-.014.007-.013.007-.014.007-.009,0,0,0-.014.007-.014.007-.014.006,0,0-.011.005-.014.007-.013.007-.012.005h0l-.013.007-.015.007-.014.006-.006,0-.006,0-.015.007-.014.006-.014.007h0l-.013.006-.014.007-.014.006-.01,0,0,0-.014.006-.015.006-.014.007,0,0-.01,0-.014.006-.014.006-.014.006h0l-.014.006-.014.006-.014.006-.008,0-.006,0-.014.006-.014.006-.028.014-.014.006-.015.006-.011,0,0,0-.015.005-.014.006-.014.006-.006,0-.008,0-.014.006-.015.006-.014.006a8.568,8.568,0,0,1-9.5-1.8l0,0,0,0-.005-.005-.068-.068,0,0-.067-.069-.005-.005-.066-.07,0-.005-.065-.07,0-.005-.016-.016-.054-.06-.064-.073,0,0-.063-.074,0,0-.062-.075,0,0-.061-.076,0,0-.06-.076,0-.005-.059-.077,0,0-.059-.078,0-.005-.057-.078,0-.005-.057-.079,0,0-.056-.079,0-.005-.056-.08,0,0-.055-.082,0,0-.053-.082,0,0-.052-.083,0,0-.052-.084,0,0-.05-.084,0,0-.05-.086,0,0-.048-.087,0,0-.048-.087,0,0-.047-.088,0,0-.047-.089v0l-.046-.089,0,0-.044-.09,0,0-.043-.09,0,0-.042-.091,0,0-.04-.091,0,0-.04-.093v0l-.039-.093,0,0-.037-.094v0l-.036-.094,0,0-.036-.095v0l-.035-.1v0l-.034-.1v0l-.032-.1v0l-.031-.1v0l-.03-.1v0l-.029-.1v0l-.027-.1v0l-.026-.1v0l-.026-.1v0l-.024-.1v0l-.023-.1v0l-.022-.1v0l-.02-.1v0l-.02-.1v0l-.017-.1v0l-.016-.1v0l-.016-.1v0l-.014-.106h0l-.013-.106v0l-.012-.107h0l-.01-.108h0l-.009-.108h0l-.008-.109h0l-.005-.109h0l-.005-.109h0l0-.11,0-.109h0v-.441h0v-.076h-5.428l-3.34,14.828Zm29.6-26.285a11.253,11.253,0,0,1,7.982,3.306q.354.354.677.74c.175-.08.353-.154.534-.224a8.575,8.575,0,0,1,9.122,1.958l.009.009a8.662,8.662,0,0,1,.98,1.171h8.749v.006a2.241,2.241,0,0,1,2.186,1.75l4.313,19.144a2.118,2.118,0,0,1,.08.358h.005v.039a2.3,2.3,0,0,1,.016.276,2.262,2.262,0,0,1-.016.274v3.89a7.627,7.627,0,0,1-2.249,5.4l0,0a7.69,7.69,0,0,1-2.222,1.549V554.13H160.344V523.7a7.7,7.7,0,0,1-2.214-1.546l-.009-.008a7.619,7.619,0,0,1-2.244-5.395V512.8a2.169,2.169,0,0,1,0-.422v-.106h.012c.008-.058.019-.118.033-.176l4.314-19.151a2.248,2.248,0,0,1,2.226-1.931h8.75a8.711,8.711,0,0,1,.979-1.171l0,0,0,0a8.573,8.573,0,0,1,9.121-1.958c.182.069.36.143.534.224q.322-.385.677-.74a11.253,11.253,0,0,1,7.982-3.306Zm10.8,8.01a11.246,11.246,0,0,1,.476,2.9l0,.042v.714l0,.031v.03h0a11.217,11.217,0,0,1-.831,3.842l0,0h0l0,0,.005,0,0,0h0l0,0,0,0,.005,0h0l0,0,.005,0,0,0,0,0h0l0,0,.005,0,0,0h.005l0,0,.005,0h0l.005,0,.005,0,0,0,.005,0,0,0,.005,0h0l0,0,.005,0,0,0h.005l.005,0,0,0,.005,0a4.148,4.148,0,0,0,4.539-.862l.009-.008a4.089,4.089,0,0,0,1.194-2.9v-.159h0v-.127a4.123,4.123,0,0,0-.326-1.348c-.028-.054-.054-.11-.077-.167a4.135,4.135,0,0,0-5.129-2.053Zm-21.253,7.557a11.252,11.252,0,0,1-.829-3.768l0-.051,0-.051,0-.051,0-.051V495l0-.042a11.292,11.292,0,0,1,.477-2.9,4.153,4.153,0,0,0-4.339.943l-.009.008a4.085,4.085,0,0,0-1.184,2.617l0,.014v.113h0v.159a4.089,4.089,0,0,0,1.194,2.9l.009.008a4.149,4.149,0,0,0,4.54.862l0,0,.005,0,0,0,.005,0,0,0h0l0,0,.005,0,0,0,.005,0h.005l0,0,.005,0,0,0,.005,0h0l0,0,.005,0,.005,0,0,0,0,0h0l0,0,.005,0,0,0,0,0,0,0h0l0,0,.005,0,.005,0,0,0h.005l0,0,0,0Zm15.25-9.081a6.791,6.791,0,0,0-11.589,4.586v.438l0,.04v.024l0,.063h0a6.793,6.793,0,0,0,6.342,6.428h0l.049,0,.036,0,.018,0,.056,0h.055l.046,0h.35l.047,0h.055l.055,0,.018,0,.036,0,.05,0h0A6.792,6.792,0,0,0,197.3,495.6v-.088h0v-.391a6.772,6.772,0,0,0-1.986-4.586Zm1.7,59.093V526.88h14.8v22.752h4.366V524.284a7.644,7.644,0,0,1-4.076-2.13h0a7.612,7.612,0,0,1-10.8,0,7.613,7.613,0,0,1-10.8,0h0a7.613,7.613,0,0,1-10.8,0h0a7.613,7.613,0,0,1-10.8,0,7.638,7.638,0,0,1-4.084,2.13v25.348Zm10.307,0V531.378h-5.809v18.254ZM171.456,526.88h21.106v18.174H169.207V526.88Zm16.608,4.5H173.7v9.179h14.36v-9.179Zm-27.69-16.542v1.915a3.149,3.149,0,0,0,6.3,0v-1.915Zm10.8,0v1.915a3.143,3.143,0,0,0,5.372,2.223h.009a3.137,3.137,0,0,0,.918-2.223v-1.915Zm10.8,0v1.915a3.143,3.143,0,0,0,5.372,2.223h.009a3.138,3.138,0,0,0,.918-2.223v-1.915Zm10.8,0v1.915a3.149,3.149,0,0,0,6.3,0v-1.915Zm10.8,0v1.915a3.143,3.143,0,0,0,5.372,2.223h.009a3.134,3.134,0,0,0,.919-2.223v-1.915Zm10.8,0v1.915a3.143,3.143,0,0,0,5.372,2.223h.009a3.138,3.138,0,0,0,.918-2.223v-1.915Z" transform="translate(265.133 4516.667)" fill="#fff" fill-rule="evenodd"/>
  </g>
</svg>
