<svg xmlns="http://www.w3.org/2000/svg" width="118" height="118" viewBox="0 0 118 118">
  <g id="Grupo_9325" data-name="Grupo 9325" transform="translate(-396 -3885)">
    <g id="Elipse_606" data-name="Elipse 606" transform="translate(396 3885)" fill="#afdddb" stroke="#619694" stroke-width="2">
      <circle cx="59" cy="59" r="59" stroke="none"/>
      <circle cx="59" cy="59" r="58" fill="none"/>
    </g>
    <path id="Trazado_18723" data-name="Trazado 18723" d="M319.937,484.077a8.416,8.416,0,0,1,9.077,7.677c.007.086.013.172.017.259l7.268-.611a10.274,10.274,0,0,1,7.757,2.672,11.376,11.376,0,0,1,3.7,7.511l.252,3,3.569-.3.37,4.484-3.562.3h0l-2.246.189-47.841,4.021-2.238.188h0l-3.57.3-.369-4.484,3.562-.3-.252-3a11.357,11.357,0,0,1,2.393-8.009v-.009a10.281,10.281,0,0,1,7.207-3.928l7.261-.61c-.011-.089-.02-.177-.027-.265a8.416,8.416,0,0,1,7.676-9.077Zm28.594,38.652v4.509a7.952,7.952,0,0,0,2.436-1.889,7.691,7.691,0,0,0,1.44-2.62Zm0,9.384v10.993a11.375,11.375,0,0,1-3.057,7.792,10.279,10.279,0,0,1-7.507,3.312H306.584a10.279,10.279,0,0,1-7.507-3.312,11.375,11.375,0,0,1-3.057-7.792V532.114a12.515,12.515,0,0,1-8.817-11.222,2.279,2.279,0,0,1-.038-.414,2.251,2.251,0,0,1,2.251-2.251h22.657A8.454,8.454,0,0,1,326.8,516.28a9.342,9.342,0,0,1,17.136,1.947h11.2a2.251,2.251,0,0,1,2.252,2.251,2.276,2.276,0,0,1-.038.414,12.517,12.517,0,0,1-8.818,11.222Zm-52.512-4.876v-4.508h-3.876a7.691,7.691,0,0,0,1.44,2.62,7.946,7.946,0,0,0,2.436,1.888Zm48.009,15.869V522.729H300.522v20.377a6.871,6.871,0,0,0,1.826,4.714,5.813,5.813,0,0,0,4.236,1.888h31.382a5.81,5.81,0,0,0,4.235-1.888,6.87,6.87,0,0,0,1.827-4.714Zm-21.506-24.88a3.985,3.985,0,0,0-5.117,0Zm15.78-.916a4.863,4.863,0,0,0-6.69,0,4.909,4.909,0,0,0-.753.916h8.2a4.838,4.838,0,0,0-.753-.916Zm-31.926,24.523a2.251,2.251,0,1,1-2.252,2.251,2.251,2.251,0,0,1,2.252-2.251Zm-2.252-13.481a2.251,2.251,0,0,1,4.5,0v8.854a2.251,2.251,0,0,1-4.5,0v-8.854Zm-3.962-19.75,43.357-3.644-.253-3a6.865,6.865,0,0,0-2.219-4.539,5.819,5.819,0,0,0-4.379-1.529L323.8,496.968l-8.373.7-.268.023-9.767.821a5.811,5.811,0,0,0-4.059,2.239l0,0a6.891,6.891,0,0,0-1.422,4.855l.252,3Zm23-19.136a3.906,3.906,0,0,0-6.413,3.318c.007.089.016.175.028.258l7.769-.652c0-.087-.007-.175-.015-.267a3.893,3.893,0,0,0-1.37-2.656Z" transform="translate(133.836 3423.596)" fill="#fff" fill-rule="evenodd"/>
  </g>
</svg>
