<svg xmlns="http://www.w3.org/2000/svg" width="118" height="118" viewBox="0 0 118 118">
  <g id="Grupo_9326" data-name="Grupo 9326" transform="translate(-396 -4260)">
    <g id="Elipse_607" data-name="Elipse 607" transform="translate(396 4260)" fill="#afdddb" stroke="#619694" stroke-width="2">
      <circle cx="59" cy="59" r="59" stroke="none"/>
      <circle cx="59" cy="59" r="58" fill="none"/>
    </g>
    <path id="Trazado_18722" data-name="Trazado 18722" d="M322.207,231.52A33.672,33.672,0,0,1,353.7,265.106v.065h0v4.383H286.387v-4.383h0v-.065a33.677,33.677,0,0,1,31.5-33.586l0-.058V228.2a2.162,2.162,0,0,1,2.156-2.157h0A2.165,2.165,0,0,1,322.2,228.2V231.3c0,.071.006.143.005.216Zm-23.939,22.322A2.158,2.158,0,1,1,296.11,256a2.158,2.158,0,0,1,2.158-2.158Zm5.157-2A2.152,2.152,0,1,1,300,249.228a24.266,24.266,0,0,1,5.012-4.839,27.653,27.653,0,0,1,6.347-3.439,2.155,2.155,0,1,1,1.534,4.028,23.306,23.306,0,0,0-5.353,2.9,19.95,19.95,0,0,0-4.119,3.961ZM293.142,277.1v2.9h53.8v-2.9Zm-3.717,7.19h-.6V277.1h-7.842v-4.383H359.1V277.1h-7.843v7.19H289.424Zm59.7-19.124v-.065a29.082,29.082,0,1,0-58.163,0v.065Z" transform="translate(135.016 4059.248)" fill="#fff" fill-rule="evenodd"/>
  </g>
</svg>
