<svg xmlns="http://www.w3.org/2000/svg" width="118" height="118" viewBox="0 0 118 118">
  <g id="Grupo_9327" data-name="Grupo 9327" transform="translate(-396 -4663)">
    <g id="Elipse_608" data-name="Elipse 608" transform="translate(396 4663)" fill="#afdddb" stroke="#619694" stroke-width="2">
      <circle cx="59" cy="59" r="59" stroke="none"/>
      <circle cx="59" cy="59" r="58" fill="none"/>
    </g>
    <g id="Grupo_9287" data-name="Grupo 9287" transform="translate(408.113 4671.24)">
      <circle id="Elipse_610" data-name="Elipse 610" cx="1.119" cy="1.119" r="1.119" transform="translate(30.689 30.611)" fill="#fff"/>
      <circle id="Elipse_611" data-name="Elipse 611" cx="1.119" cy="1.119" r="1.119" transform="translate(47.137 30.611)" fill="#fff"/>
      <circle id="Elipse_612" data-name="Elipse 612" cx="1.119" cy="1.119" r="1.119" transform="translate(55.752 36.274)" fill="#fff"/>
      <circle id="Elipse_613" data-name="Elipse 613" cx="1.119" cy="1.119" r="1.119" transform="translate(38.073 36.274)" fill="#fff"/>
      <circle id="Elipse_614" data-name="Elipse 614" cx="1.119" cy="1.119" r="1.119" transform="translate(55.752 24.435)" fill="#fff"/>
      <circle id="Elipse_615" data-name="Elipse 615" cx="1.119" cy="1.119" r="1.119" transform="translate(38.073 24.435)" fill="#fff"/>
      <circle id="Elipse_616" data-name="Elipse 616" cx="1.119" cy="1.119" r="1.119" transform="translate(63.584 30.611)" fill="#fff"/>
      <path id="Trazado_18726" data-name="Trazado 18726" d="M81.466,43.4C79.928,27.459,65.229,15.435,47.271,15.435S14.612,27.459,13.074,43.4l-.226,2.346h.078A10.133,10.133,0,0,0,15.6,52.541a6.21,6.21,0,0,0-1.278,10.622l0,6.011a8.157,8.157,0,0,0,8.147,8.147H71.815a8.156,8.156,0,0,0,8.146-8.147l0-6.011A6.2,6.2,0,0,0,78.882,52.65a10.137,10.137,0,0,0,2.766-6.9ZM15.984,58.245a2.155,2.155,0,0,1,2.154-2.154h6.278l-.425-.463h0l3.794,4.143H16.623A2.142,2.142,0,0,1,15.984,58.245Zm39.261-6.726h-.306a5.712,5.712,0,0,1-5.55-5.769H60.794A5.709,5.709,0,0,1,55.245,51.519Zm-15.611,0h-.306a5.711,5.711,0,0,1-5.55-5.769H45.184A5.711,5.711,0,0,1,39.634,51.519Zm-8.1,12.35.485.529-.485-.529Zm-1.566-7.778h6.81l3.792,3.473-3.925,3.6a.173.173,0,0,1-.211-.009Zm12.877,0h22.5l-10.042,10.8A.445.445,0,0,1,55,67.04a.492.492,0,0,1-.323-.118Zm24.678,3.679,3.8-4.092h0l-.385.414h5.2a2.15,2.15,0,0,1,1.515,3.679H67.526Zm4.383-8.252H71.6a5.711,5.711,0,0,1-5.549-5.769H77.46A5.711,5.711,0,0,1,71.909,51.519ZM47.27,19.714c14.832,0,27.115,9.2,29.591,21.756H17.677C20.155,28.912,32.438,19.714,47.27,19.714ZM28.519,45.749a5.71,5.71,0,0,1-5.55,5.769h-.305a5.711,5.711,0,0,1-5.55-5.769ZM71.814,73.224H22.471a4.053,4.053,0,0,1-4.049-4.049V64.5H32.11l1.3,1.422a4.225,4.225,0,0,0,2.947,1.375c.063,0,.127,0,.19,0a4.214,4.214,0,0,0,2.864-1.116l4.191-3.838,8.3,7.6a4.508,4.508,0,0,0,3.067,1.2c.068,0,.137,0,.2,0a4.5,4.5,0,0,0,3.144-1.462l5.025-5.4-.212.228h12.73v4.679A4.052,4.052,0,0,1,71.814,73.224Z" transform="translate(0 0)" fill="#fff"/>
    </g>
  </g>
</svg>
