<svg xmlns="http://www.w3.org/2000/svg" width="118" height="118" viewBox="0 0 118 118">
  <g id="Grupo_9321" data-name="Grupo 9321" transform="translate(-396 -2084)">
    <g id="Elipse_597" data-name="Elipse 597" transform="translate(396 2084)" fill="#afdddb" stroke="#619694" stroke-width="2">
      <circle cx="59" cy="59" r="59" stroke="none"/>
      <circle cx="59" cy="59" r="58" fill="none"/>
    </g>
    <g id="Grupo_9283" data-name="Grupo 9283" transform="translate(26.882 2022.068)">
      <g id="Grupo_9282" data-name="Grupo 9282" transform="translate(388 93.828)">
        <path id="Trazado_18696" data-name="Trazado 18696" d="M470.5,97.108,388,107.42l7.734,13.052h38.909A39.185,39.185,0,0,0,470.5,97.108Z" transform="translate(-388 -88.651)" fill="none" stroke="#fff" stroke-linecap="round" stroke-miterlimit="10" stroke-width="3"/>
        <path id="Trazado_18697" data-name="Trazado 18697" d="M392.569,111.123l5.5-13.577,29.749-3.718,12.222,11.217" transform="translate(-380.79 -93.828)" fill="none" stroke="#fff" stroke-linecap="round" stroke-miterlimit="10" stroke-width="3"/>
      </g>
      <path id="Trazado_18698" data-name="Trazado 18698" d="M390.315,109.646c1.359,1.511,3.429,3.2,5.607,2.746,2.22-.459,3.6-3.008,5.847-3.31,3.109-.42,5.44,3.661,8.562,3.336,2.506-.26,4.1-3.279,6.62-3.4,2.833-.131,4.756,3.47,7.59,3.436,2.66-.031,4.421-3.246,7.079-3.385,2.988-.155,5.135,3.638,8.116,3.364,2.483-.227,4.053-3.2,6.538-3.387,1.673-.129,3.119,1.054,4.524,1.972a4.878,4.878,0,0,0,6.391-.433l1.049-1.049" transform="translate(3.653 23.971)" fill="none" stroke="#fff" stroke-linecap="round" stroke-miterlimit="10" stroke-width="3"/>
      <path id="Trazado_18699" data-name="Trazado 18699" d="M390.315,113.465c1.359,1.508,3.429,3.2,5.607,2.746,2.22-.461,3.6-3.009,5.847-3.313,3.109-.42,5.44,3.661,8.562,3.336,2.506-.26,4.1-3.279,6.62-3.4,2.833-.131,4.756,3.47,7.59,3.436,2.66-.031,4.421-3.246,7.079-3.385,2.988-.155,5.135,3.638,8.116,3.364,2.483-.227,4.053-3.2,6.538-3.387,1.673-.126,3.119,1.054,4.524,1.972a4.878,4.878,0,0,0,6.391-.433l1.049-1.047" transform="translate(3.653 29.993)" fill="none" stroke="#fff" stroke-linecap="round" stroke-miterlimit="10" stroke-width="3"/>
    </g>
  </g>
</svg>
