<svg xmlns="http://www.w3.org/2000/svg" width="118" height="118" viewBox="0 0 118 118">
  <g id="Grupo_9324" data-name="Grupo 9324" transform="translate(-396 -3530)">
    <g id="Elipse_605" data-name="Elipse 605" transform="translate(396 3530)" fill="#afdddb" stroke="#619694" stroke-width="2">
      <circle cx="59" cy="59" r="59" stroke="none"/>
      <circle cx="59" cy="59" r="58" fill="none"/>
    </g>
    <path id="Trazado_18725" data-name="Trazado 18725" d="M166.862,215.584c2.98,0,5.606,1.772,7.442,4.637a19.893,19.893,0,0,1,0,19.967,11.467,11.467,0,0,1-2.635,2.932l1.69,29.257v.066c.009.353.014.441.014.483a11.336,11.336,0,0,1-1.069,5.166,5.7,5.7,0,0,1-5.246,3.236h-.025l-.146,0h-.05l-.146,0h-.026a5.71,5.71,0,0,1-5.253-3.236l.007,0a11.345,11.345,0,0,1-1.067-5.163c0-.043.005-.131.014-.483v-.066l1.69-29.257a11.5,11.5,0,0,1-2.635-2.932,19.894,19.894,0,0,1,0-19.967c1.836-2.865,4.462-4.637,7.442-4.637Zm46.165,41.479-.9,15.544h0a9.769,9.769,0,0,0,.447,3.6,1.236,1.236,0,0,0,1.147.918v.009l.1,0h0a1.754,1.754,0,0,0,1.621-.98,7.384,7.384,0,0,0,.574-3.222c0-.335,0-.318,0-.385v-.05l0-15.428Zm-5.1,15.314.885-15.314h-6.064V237.592c0-6.806,1.619-11.746,3.914-15.194h0c3.274-4.91,7.942-6.813,11.463-6.813h2.109v2.108q0,27.393-.015,54.751c.009.353.014.441.014.483a11.336,11.336,0,0,1-1.069,5.166,5.7,5.7,0,0,1-5.246,3.236h-.025l-.146,0-.025.009a5.121,5.121,0,0,1-5.052-3.57,13.81,13.81,0,0,1-.743-5.325v-.066Zm8.088-19.531V220.127a10.949,10.949,0,0,0-5.846,4.592l-.008.009c-1.874,2.811-3.2,6.967-3.2,12.864v15.254h9.05Zm-28.66-37.275h4.481v25.165a4.246,4.246,0,0,0,3.47-4.153V215.571h4.217v21.012a8.473,8.473,0,0,1-5.052,7.726l1.621,28.068v.066c.009.353.015.441.015.483a11.347,11.347,0,0,1-1.069,5.166,5.706,5.706,0,0,1-5.247,3.236h-.025l-.146,0h-.05l-.146,0H189.4a5.708,5.708,0,0,1-5.253-3.236l.006,0a11.345,11.345,0,0,1-1.067-5.163c0-.043.005-.131.014-.483v-.066l1.621-28.068a8.474,8.474,0,0,1-5.052-7.726V215.571h4.217v21.012a4.246,4.246,0,0,0,3.47,4.153V215.571Zm2.942,29.45h-1.4L187.3,272.605c0,.04,0,.113,0,.321a7.371,7.371,0,0,0,.575,3.222h.008a1.746,1.746,0,0,0,1.613.98h0l.1,0,.1,0h0a1.753,1.753,0,0,0,1.621-.98,7.371,7.371,0,0,0,.575-3.222c0-.208,0-.281,0-.321L190.3,245.021Zm-22.748-.228c-.227.021-.457.032-.689.032s-.462-.011-.69-.032l-1.607,27.813c0,.04,0,.113,0,.321a7.384,7.384,0,0,0,.574,3.222h.009a1.746,1.746,0,0,0,1.613.98h0l.1,0,.1,0h0a1.754,1.754,0,0,0,1.621-.98,7.384,7.384,0,0,0,.574-3.222c0-.208,0-.281,0-.321l-1.608-27.813Zm3.212-22.3c-1.066-1.664-2.45-2.693-3.9-2.693s-2.834,1.028-3.9,2.693a15.777,15.777,0,0,0,0,15.421c1.066,1.663,2.45,2.693,3.9,2.693s2.835-1.029,3.9-2.693a15.783,15.783,0,0,0,0-15.421Z" transform="translate(266.267 3340.527)" fill="#fff" fill-rule="evenodd"/>
  </g>
</svg>
