<svg xmlns="http://www.w3.org/2000/svg" width="118" height="118" viewBox="0 0 118 118">
  <g id="Grupo_9323" data-name="Grupo 9323" transform="translate(-396 -3269)">
    <g id="Elipse_604" data-name="Elipse 604" transform="translate(396 3269)" fill="#afdddb" stroke="#619694" stroke-width="2">
      <circle cx="59" cy="59" r="59" stroke="none"/>
      <circle cx="59" cy="59" r="58" fill="none"/>
    </g>
    <path id="Trazado_18721" data-name="Trazado 18721" d="M209,371.055l-23.4,2.2v49.565l23.4-2.2V371.055Zm-4.755,40.818-13.891,1.489v3.913l13.891-1.489v-3.913Zm0-23.576-13.891,1.49V393.7l13.891-1.49V388.3Zm-13.891-6.39v3.913l13.891-1.49v-3.913l-13.891,1.49Zm0,15.7v3.913l13.891-1.49v-3.913l-13.891,1.49Zm0,7.88V409.4l13.891-1.49v-3.913l-13.891,1.49Zm-27.3,6.391,13.892,1.489v3.913l-13.892-1.489v-3.913Zm13.892-14.27v3.913l-13.892-1.49v-3.913l13.892,1.49Zm0,7.88V409.4l-13.892-1.49v-3.913l13.892,1.49ZM170,375.756a6.363,6.363,0,0,1,5.006,2.577,9.427,9.427,0,0,1,0,11.24,6.153,6.153,0,0,1-10.012,0,9.428,9.428,0,0,1,0-11.24A6.361,6.361,0,0,1,170,375.756Zm1.945,4.983a2.286,2.286,0,0,0-3.889,0,5.57,5.57,0,0,0,0,6.427,2.286,2.286,0,0,0,3.889,0,5.57,5.57,0,0,0,0-6.427Zm-15.42-13.753,27.125,2.549,27.125-2.549,2.125-.2v57.368l-1.774.167-25.526,2.4-1.949.184-1.949-.184-25.526-2.4-1.774-.167V366.787l2.125.2Zm25.175,6.267-23.4-2.2V420.62l23.4,2.2V373.254Z" transform="translate(268.597 2931.085)" fill="#fff" fill-rule="evenodd"/>
  </g>
</svg>
