<svg xmlns="http://www.w3.org/2000/svg" width="118" height="118" viewBox="0 0 118 118">
  <g id="Grupo_9319" data-name="Grupo 9319" transform="translate(-396 -1107)">
    <g id="Elipse_592" data-name="Elipse 592" transform="translate(396 1107)" fill="#afdddb" stroke="#619694" stroke-width="2">
      <circle cx="59" cy="59" r="59" stroke="none"/>
      <circle cx="59" cy="59" r="58" fill="none"/>
    </g>
    <g id="Grupo_9279" data-name="Grupo 9279" transform="translate(91.647 1103.549)">
      <path id="Trazado_18692" data-name="Trazado 18692" d="M385.137,47.255c2.523-2.311,10.269-13.922,7.851-16.342s-14.031,5.329-16.342,7.851l-4.573,5.078-35.239-6.259-6.128,6.128,28.308,14.635-8.923,9.911L334.41,65.036,330.451,69l13.189,6.428-3.355,3.725a3.163,3.163,0,0,0,4.468,4.468l3.724-3.355,6.428,13.189,3.959-3.959L355.644,73.81l9.911-8.923L380.19,93.2l6.128-6.128L380.06,51.828Z" transform="translate(0 0)" fill="none" stroke="#fff" stroke-linecap="round" stroke-linejoin="round" stroke-width="3"/>
    </g>
  </g>
</svg>
