<svg xmlns="http://www.w3.org/2000/svg" width="118" height="118" viewBox="0 0 118 118">
  <g id="Grupo_9326" data-name="Grupo 9326" transform="translate(-396 -2595)">
    <g id="Elipse_602" data-name="Elipse 602" transform="translate(396 2595)" fill="#afdddb" stroke="#619694" stroke-width="2">
      <circle cx="59" cy="59" r="59" stroke="none"/>
      <circle cx="59" cy="59" r="58" fill="none"/>
    </g>
    <path id="Trazado_18719" data-name="Trazado 18719" d="M348.669,427.99a5.112,5.112,0,0,0,8.772-3.7L356.226,377.6a5.666,5.666,0,0,0,4.184-5.462V349.943a1.439,1.439,0,1,0-2.878,0v16.728H355.8V349.943a1.439,1.439,0,0,0-2.878,0v16.728h-1.237V349.943a1.439,1.439,0,1,0-2.878,0v16.728h-1.683V349.943a1.439,1.439,0,1,0-2.878,0v22.194a5.666,5.666,0,0,0,4.184,5.462l-1.214,46.692A5.064,5.064,0,0,0,348.669,427.99Zm-1.541-55.853v-2.588h10.4v2.588a2.781,2.781,0,0,1-2.778,2.778,1.438,1.438,0,0,0-1.439,1.477l1.247,47.976a2.208,2.208,0,0,1-.631,1.616,2.29,2.29,0,0,1-3.2,0,2.2,2.2,0,0,1-.631-1.614l1.247-47.976a1.442,1.442,0,0,0-1.439-1.477A2.78,2.78,0,0,1,347.128,372.137Z" transform="translate(117.75 2266.724)" fill="#fff"/>
    <text id="_2" data-name="2" transform="translate(416 2676)" fill="#fff" font-size="60" font-family="SegoeUI-Bold, Segoe UI" font-weight="700"><tspan x="0" y="0">2</tspan></text>
  </g>
</svg>
